<svg xmlns="http://www.w3.org/2000/svg" viewBox="0 0 690 330" width="690" height="330" font-family="ui-sans-serif, system-ui, -apple-system, 'Segoe UI', Roboto, sans-serif"><defs><marker id="ah" viewBox="0 0 10 10" refX="9" refY="5" markerWidth="7" markerHeight="7" orient="auto-start-reverse"><path d="M0,0 L10,5 L0,10 z" fill="#94a3b8"/></marker><marker id="ahl" viewBox="0 0 10 10" refX="9" refY="5" markerWidth="6" markerHeight="6" orient="auto-start-reverse"><path d="M0,0 L10,5 L0,10 z" fill="#7d8590"/></marker></defs><line x1="94.0" y1="90.0" x2="223.0" y2="90.0" stroke="#94a3b8" stroke-width="2.5" stroke-linecap="round" marker-end="url(#ah)"/><line x1="250.0" y1="114.0" x2="250.0" y2="223.0" stroke="#94a3b8" stroke-width="2.5" stroke-linecap="round" marker-end="url(#ah)"/><line x1="226.0" y1="250.0" x2="97.0" y2="250.0" stroke="#94a3b8" stroke-width="2.5" stroke-linecap="round" marker-end="url(#ah)"/><line x1="87.9" y1="234.1" x2="229.8" y2="107.9" stroke="#94a3b8" stroke-width="2.5" stroke-linecap="round" marker-end="url(#ah)"/><circle cx="70" cy="90" r="24" fill="#64748b"/><text x="70" y="90" dy=".35em" text-anchor="middle" font-size="19" font-weight="700" fill="#fff">0</text><circle cx="250" cy="90" r="24" fill="#64748b"/><text x="250" y="90" dy=".35em" text-anchor="middle" font-size="19" font-weight="700" fill="#fff">1</text><circle cx="250" cy="250" r="24" fill="#64748b"/><text x="250" y="250" dy=".35em" text-anchor="middle" font-size="19" font-weight="700" fill="#fff">2</text><circle cx="70" cy="250" r="24" fill="#64748b"/><text x="70" y="250" dy=".35em" text-anchor="middle" font-size="19" font-weight="700" fill="#fff">3</text><text x="160" y="310" dy=".35em" text-anchor="middle" font-size="16" font-weight="500" fill="#7d8590">directed graph</text><line x1="320" y1="170" x2="372" y2="170" stroke="#94a3b8" stroke-width="2.5" marker-end="url(#ah)"/><rect x="463" y="43" width="44" height="44" rx="8" fill="#64748b"/><text x="485.0" y="65.0" dy=".35em" text-anchor="middle" font-size="18" font-weight="700" fill="#fff">0</text><rect x="413" y="93" width="44" height="44" rx="8" fill="#64748b"/><text x="435.0" y="115.0" dy=".35em" text-anchor="middle" font-size="18" font-weight="700" fill="#fff">0</text><rect x="463" y="93" width="44" height="44" rx="8" fill="none" stroke="#94a3b8" stroke-width="1.5"/><text x="485.0" y="115.0" dy=".35em" text-anchor="middle" font-size="18" font-weight="500" fill="#7d8590">0</text><rect x="513" y="93" width="44" height="44" rx="8" fill="#2563eb"/><text x="535.0" y="115.0" dy=".35em" text-anchor="middle" font-size="18" font-weight="700" fill="#fff">1</text><rect x="563" y="93" width="44" height="44" rx="8" fill="none" stroke="#94a3b8" stroke-width="1.5"/><text x="585.0" y="115.0" dy=".35em" text-anchor="middle" font-size="18" font-weight="500" fill="#7d8590">0</text><rect x="613" y="93" width="44" height="44" rx="8" fill="none" stroke="#94a3b8" stroke-width="1.5"/><text x="635.0" y="115.0" dy=".35em" text-anchor="middle" font-size="18" font-weight="500" fill="#7d8590">0</text><rect x="513" y="43" width="44" height="44" rx="8" fill="#64748b"/><text x="535.0" y="65.0" dy=".35em" text-anchor="middle" font-size="18" font-weight="700" fill="#fff">1</text><rect x="413" y="143" width="44" height="44" rx="8" fill="#64748b"/><text x="435.0" y="165.0" dy=".35em" text-anchor="middle" font-size="18" font-weight="700" fill="#fff">1</text><rect x="463" y="143" width="44" height="44" rx="8" fill="none" stroke="#94a3b8" stroke-width="1.5"/><text x="485.0" y="165.0" dy=".35em" text-anchor="middle" font-size="18" font-weight="500" fill="#7d8590">0</text><rect x="513" y="143" width="44" height="44" rx="8" fill="none" stroke="#94a3b8" stroke-width="1.5"/><text x="535.0" y="165.0" dy=".35em" text-anchor="middle" font-size="18" font-weight="500" fill="#7d8590">0</text><rect x="563" y="143" width="44" height="44" rx="8" fill="#2563eb"/><text x="585.0" y="165.0" dy=".35em" text-anchor="middle" font-size="18" font-weight="700" fill="#fff">1</text><rect x="613" y="143" width="44" height="44" rx="8" fill="none" stroke="#94a3b8" stroke-width="1.5"/><text x="635.0" y="165.0" dy=".35em" text-anchor="middle" font-size="18" font-weight="500" fill="#7d8590">0</text><rect x="563" y="43" width="44" height="44" rx="8" fill="#64748b"/><text x="585.0" y="65.0" dy=".35em" text-anchor="middle" font-size="18" font-weight="700" fill="#fff">2</text><rect x="413" y="193" width="44" height="44" rx="8" fill="#64748b"/><text x="435.0" y="215.0" dy=".35em" text-anchor="middle" font-size="18" font-weight="700" fill="#fff">2</text><rect x="463" y="193" width="44" height="44" rx="8" fill="none" stroke="#94a3b8" stroke-width="1.5"/><text x="485.0" y="215.0" dy=".35em" text-anchor="middle" font-size="18" font-weight="500" fill="#7d8590">0</text><rect x="513" y="193" width="44" height="44" rx="8" fill="none" stroke="#94a3b8" stroke-width="1.5"/><text x="535.0" y="215.0" dy=".35em" text-anchor="middle" font-size="18" font-weight="500" fill="#7d8590">0</text><rect x="563" y="193" width="44" height="44" rx="8" fill="none" stroke="#94a3b8" stroke-width="1.5"/><text x="585.0" y="215.0" dy=".35em" text-anchor="middle" font-size="18" font-weight="500" fill="#7d8590">0</text><rect x="613" y="193" width="44" height="44" rx="8" fill="#2563eb"/><text x="635.0" y="215.0" dy=".35em" text-anchor="middle" font-size="18" font-weight="700" fill="#fff">1</text><rect x="613" y="43" width="44" height="44" rx="8" fill="#64748b"/><text x="635.0" y="65.0" dy=".35em" text-anchor="middle" font-size="18" font-weight="700" fill="#fff">3</text><rect x="413" y="243" width="44" height="44" rx="8" fill="#64748b"/><text x="435.0" y="265.0" dy=".35em" text-anchor="middle" font-size="18" font-weight="700" fill="#fff">3</text><rect x="463" y="243" width="44" height="44" rx="8" fill="none" stroke="#94a3b8" stroke-width="1.5"/><text x="485.0" y="265.0" dy=".35em" text-anchor="middle" font-size="18" font-weight="500" fill="#7d8590">0</text><rect x="513" y="243" width="44" height="44" rx="8" fill="#2563eb"/><text x="535.0" y="265.0" dy=".35em" text-anchor="middle" font-size="18" font-weight="700" fill="#fff">1</text><rect x="563" y="243" width="44" height="44" rx="8" fill="none" stroke="#94a3b8" stroke-width="1.5"/><text x="585.0" y="265.0" dy=".35em" text-anchor="middle" font-size="18" font-weight="500" fill="#7d8590">0</text><rect x="613" y="243" width="44" height="44" rx="8" fill="none" stroke="#94a3b8" stroke-width="1.5"/><text x="635.0" y="265.0" dy=".35em" text-anchor="middle" font-size="18" font-weight="500" fill="#7d8590">0</text><text x="535.0" y="310" dy=".35em" text-anchor="middle" font-size="16" font-weight="500" fill="#7d8590">adjacency matrix (row → column)</text></svg>
